<svg xmlns="http://www.w3.org/2000/svg" viewBox="0 0 48 48">
  <defs>
    <style>
      .icon-path {
        fill: #cccccc; /* Светло-серый цвет */
        stroke: none;
      }
    </style>
  </defs>
  <path class="icon-path" d="M38,2 L10,2 C6.686,2 4,4.686 4,8 L4,36 C4,39.314 6.686,42 10,42 L38,42 C41.314,42 44,39.314 44,36 L44,8 C44,4.686 41.314,2 38,2 Z M38,6 C39.105,6 40,6.895 40,8 L40,36 C40,37.105 39.105,38 38,38 L10,38 C8.895,38 8,37.105 8,36 L8,8 C8,6.895 8.895,6 10,6 L38,6 Z"/>
  <path class="icon-path" d="M16.5,18 C18.433,18 20,16.433 20,14.5 C20,12.567 18.433,11 16.5,11 C14.567,11 13,12.567 13,14.5 C13,16.433 14.567,18 16.5,18 Z"/>
  <path class="icon-path" d="M12.428,34 L35.572,34 C36.212,34 36.638,33.352 36.388,32.767 L29.412,16.636 C29.15,16.03 28.3,16.03 28.038,16.636 L21.782,31.023 C21.688,31.238 21.492,31.397 21.258,31.442 C21.025,31.488 20.781,31.414 20.611,31.246 L18.989,29.616 C18.706,29.333 18.248,29.333 17.965,29.616 L11.612,32.767 C11.362,33.352 11.788,34 12.428,34 Z"/>
</svg>
